<?xml version="1.0" encoding="utf-8"?>
<!-- Svg Vector Icons : http://www.onlinewebfonts.com/icon -->
<!DOCTYPE svg PUBLIC "-//W3C//DTD SVG 1.1//EN" "http://www.w3.org/Graphics/SVG/1.1/DTD/svg11.dtd">
<svg version="1.1" xmlns="http://www.w3.org/2000/svg" xmlns:xlink="http://www.w3.org/1999/xlink" x="0px" y="0px" viewBox="0 0 1000 1000" enable-background="new 0 0 1000 1000" xml:space="preserve">
<metadata> Svg Vector Icons : http://www.onlinewebfonts.com/icon </metadata>
<g><path d="M500.5,10.1c133.8,0,267.6,0,401.5,0c33.4,0,59.1,14,76.5,42.5c7.3,11.9,10.9,25.1,11.3,39.1c0.1,2.5,0.1,4.9,0.1,7.4c0,267.3,0,534.6,0.1,801.9c0,23.8-6.9,44.8-23.3,62.1c-15.7,16.6-35.2,25.4-58.1,26.6c-2.5,0.1-4.9,0.1-7.4,0.1c-267.5,0-535,0-802.4,0.1c-23.9,0-44.8-7-62.1-23.4c-16.6-15.7-25.4-35.2-26.5-58.1c-0.1-2.5-0.1-4.9-0.1-7.4c0-267.5,0.1-535-0.1-802.4c0-26.9,9-49.6,29.2-67.5C54.3,17.8,72,10.4,92.2,10.3c45.8-0.3,91.7-0.2,137.5-0.2C320,10.1,410.2,10.1,500.5,10.1z M947.6,478.6c0-2.4,0-4.3,0-6.2c0-124.5,0-249,0-373.4c0-28.8-17.8-46.6-46.4-46.6c-124.7,0-249.3,0-374,0c-1.9,0-3.8,0-5.8,0c0,142.4,0,284.3,0,426.3C663.5,478.6,805.1,478.6,947.6,478.6z M478.6,52.3c-2.2,0-4,0-5.9,0c-124.6,0-249.3,0-374,0c-28.4,0-46.3,17.9-46.3,46.1c0,124.8,0,249.7,0,374.5c0,1.9,0,3.7,0,5.5c142.6,0,284.4,0,426.3,0C478.6,336.3,478.6,194.6,478.6,52.3z M947.6,521.5c-142.6,0-284.4,0-426.1,0c0,142.2,0,284.1,0,426.1c1.8,0,3.2,0,4.6,0c125.5,0,251.1,0,376.6-0.1c4.4,0,8.9-0.4,13.1-1.6c19.9-5.5,31.8-21.7,31.8-43.3c0-125.4,0-250.7,0-376.1C947.6,525,947.6,523.4,947.6,521.5z M52.6,521.4c-0.1,2-0.2,3.7-0.2,5.4c0,125,0,250,0,375c0,27.7,18,45.8,45.6,45.8c125,0,250,0,375,0c1.8,0,3.7,0,5.5,0c0-142.6,0-284.4,0-426.3C336.3,521.4,194.6,521.4,52.6,521.4z"/><path d="M734,286.6c-34.4,0-68.8,0-103.2,0c-12.3,0-19.9-5-23-14.7c-4-12.5,3.9-25.2,16.9-27c2.4-0.3,4.9-0.5,7.4-0.5c68.2,0,136.5,0,204.7,0c6.1,0,11.9,0.6,17,4.6c6.8,5.4,9.8,14.1,7.5,22.2c-2.3,8.4-9.5,14.7-18.3,15.1c-10.6,0.5-21.2,0.3-31.7,0.3C785.5,286.6,759.8,286.6,734,286.6z"/><path d="M286.6,244.4c2.8,0,4.9,0,7,0c25.2,0,50.4-0.1,75.6,0c12.4,0,20.1,5.3,23.1,15.4c3.7,12.5-4.8,25.4-17.8,26.4c-8.9,0.7-18,0.4-26.9,0.4c-18.2,0-36.3,0-54.5,0c-1.9,0-3.8,0-6.3,0c0,2.8,0,4.8,0,6.9c0,25.2,0,50.4,0,75.6c0,12.5-5.2,20.2-15.3,23.2c-12.2,3.6-24.9-4.5-26.5-17.1c-0.4-2.8-0.4-5.6-0.4-8.5c0-24.3,0-48.7,0-73c0-2.1,0-4.2,0-7c-2.6,0-4.6,0-6.7,0c-24.9,0-49.7,0-74.6,0c-3.3,0-6.8-0.1-10-0.9c-9.7-2.5-15.8-11.5-15.1-22c0.6-9.6,7.8-17.5,17.6-18.9c2.6-0.4,5.3-0.5,7.9-0.5c24.5-0.1,49,0,73.5,0c2.1,0,4.2,0,7.2,0c0-2.4,0-4.4,0-6.4c0-25.2,0-50.4,0-75.6c0-6.3,0.9-12.3,5.4-17.2c6.1-6.6,13.6-8.7,22.1-6.1c8.5,2.7,13.8,8.7,14.4,17.7c0.6,9.8,0.4,19.7,0.4,29.6c0.1,17.1,0,34.2,0,51.3C286.6,239.7,286.6,241.7,286.6,244.4z"/><path d="M734.2,819.5c-35.1,0-70.1,0-105.2,0c-12.9,0-22-8.7-22.2-20.6c-0.2-11.3,7.9-20.4,19.1-21.5c1.9-0.2,3.9-0.1,5.8-0.1c68.5,0,137.1,0,205.6,0c2.8,0,5.7,0.1,8.4,0.7c10.9,2.6,17.3,12.1,16,23.4c-1.1,9.9-9.8,17.9-20.3,18c-20.4,0.2-40.9,0.1-61.3,0.1C764.9,819.5,749.5,819.5,734.2,819.5z"/><path d="M734.4,691.6c-35.1,0-70.1,0.1-105.2,0c-13.6,0-22.7-9.2-22.3-22c0.3-9,6.5-17,15.3-19.2c3-0.7,6.3-1,9.4-1c68.5-0.1,137.1-0.1,205.6,0c3.7,0,7.5,0.3,10.9,1.5c9.7,3.2,15.3,13.2,13.6,23.5c-1.6,9.6-10.1,17.1-20.5,17.1C805.6,691.6,770,691.5,734.4,691.6C734.4,691.5,734.4,691.6,734.4,691.6z"/><path d="M264.1,761.3c-1.7,2.7-2.5,4.6-3.8,5.9c-20.9,21-41.8,41.9-62.7,62.9c-6.5,6.6-14.1,9.4-23,6.7c-13.8-4.1-19.3-20.9-10.6-32.6c1.4-2,3.2-3.7,5-5.5c20.5-20.4,40.9-40.8,61.4-61.2c1.4-1.4,3-2.5,6.1-4.9c-2.6-1.7-4.5-2.5-5.9-3.8c-21.1-21-42.1-42.2-63.2-63.2c-6.2-6.1-9.5-13.2-7.5-21.9c3.9-16.4,23.4-21.6,35.9-9.5c15,14.7,29.7,29.6,44.6,44.4c8,8,15.9,16,24.2,24.3c1.6-1.5,3-2.8,4.4-4.1c20.4-20.4,40.9-40.8,61.3-61.4c6.1-6.1,13.1-9,21.5-7c14.8,3.4,20.9,21,11.8,33.1c-1.5,2-3.2,3.7-5,5.5c-19.8,19.9-39.6,39.7-59.4,59.5c-1.4,1.4-3.2,2.2-5.1,3.5c2.4,2.5,3.6,3.9,5,5.2c20.3,20.3,40.7,40.6,60.9,61c8.7,8.7,9.6,20.4,2.7,29.1c-7.1,8.9-19.6,10.7-28.8,3.9c-2.1-1.5-4-3.4-5.9-5.3c-19.6-19.6-39.2-39.1-58.7-58.7C267.7,766.1,266.6,764.4,264.1,761.3z"/></g>
</svg>
